<svg width="16" height="16" viewBox="0 0 16 16" fill="none" xmlns="http://www.w3.org/2000/svg">
<path d="M14 4.44376C13.8823 4.50471 13.7452 4.51644 13.6189 4.47635C13.4925 4.43627 13.3873 4.34767 13.3262 4.23001C12.849 3.2872 12.1266 2.49033 11.235 1.92314C11.1794 1.88809 11.1313 1.84245 11.0934 1.7888C11.0554 1.73516 11.0285 1.67457 11.0139 1.6105C10.9994 1.54643 10.9977 1.48012 11.0088 1.41538C11.0199 1.35063 11.0437 1.28871 11.0787 1.23314C11.1138 1.17757 11.1594 1.12946 11.2131 1.09153C11.2667 1.05361 11.3273 1.02662 11.3914 1.01211C11.4554 0.997602 11.5217 0.995855 11.5865 1.00697C11.6512 1.01808 11.7132 1.04184 11.7687 1.07689C12.8078 1.74222 13.6516 2.67162 14.2137 3.77001C14.2747 3.88771 14.2864 4.0248 14.2463 4.15114C14.2062 4.27747 14.1176 4.38273 14 4.44376ZM2.23185 4.50001C2.32345 4.49998 2.41328 4.47477 2.49153 4.42716C2.56979 4.37955 2.63346 4.31135 2.6756 4.23001C3.15285 3.2872 3.87523 2.49033 4.76685 1.92314C4.87907 1.85236 4.95857 1.7399 4.98787 1.6105C5.01718 1.4811 4.99388 1.34536 4.9231 1.23314C4.85232 1.12092 4.73986 1.04141 4.61046 1.01211C4.48106 0.982808 4.34532 1.00611 4.2331 1.07689C3.19397 1.74222 2.35021 2.67162 1.7881 3.77001C1.74862 3.84621 1.72942 3.93129 1.73235 4.01706C1.73527 4.10283 1.76022 4.1864 1.8048 4.25973C1.84938 4.33307 1.91208 4.39369 1.98687 4.43577C2.06166 4.47785 2.14603 4.49998 2.23185 4.50001ZM13.8631 10.9963C13.9517 11.1482 13.9986 11.3207 13.9992 11.4966C13.9998 11.6724 13.9541 11.8453 13.8665 11.9978C13.779 12.1503 13.6528 12.2771 13.5007 12.3652C13.3485 12.4534 13.1758 12.4999 13 12.5H10.45C10.3352 13.0652 10.0286 13.5733 9.5821 13.9382C9.13559 14.3032 8.57665 14.5025 7.99997 14.5025C7.42329 14.5025 6.86435 14.3032 6.41784 13.9382C5.97134 13.5733 5.66473 13.0652 5.54997 12.5H2.99997C2.82423 12.4997 2.65169 12.453 2.49973 12.3648C2.34776 12.2765 2.22173 12.1498 2.13435 11.9973C2.04696 11.8448 2.00129 11.672 2.00195 11.4963C2.00261 11.3205 2.04957 11.1481 2.1381 10.9963C2.70122 10.0244 2.99997 8.64251 2.99997 7.00001C2.99997 5.67393 3.52676 4.40216 4.46444 3.46448C5.40212 2.5268 6.67389 2.00001 7.99997 2.00001C9.32605 2.00001 10.5978 2.5268 11.5355 3.46448C12.4732 4.40216 13 5.67393 13 7.00001C13 8.64189 13.2987 10.0238 13.8631 10.9963ZM9.41372 12.5H6.58622C6.68981 12.7921 6.88135 13.045 7.13451 13.2239C7.38767 13.4027 7.69002 13.4987 7.99997 13.4987C8.30993 13.4987 8.61227 13.4027 8.86543 13.2239C9.11859 13.045 9.31013 12.7921 9.41372 12.5ZM13 11.5C12.335 10.3581 12 8.84439 12 7.00001C12 5.93915 11.5785 4.92173 10.8284 4.17159C10.0783 3.42144 9.06084 3.00001 7.99997 3.00001C6.93911 3.00001 5.92169 3.42144 5.17154 4.17159C4.4214 4.92173 3.99997 5.93915 3.99997 7.00001C3.99997 8.84501 3.66372 10.3588 2.99997 11.5H13Z" fill="white"/>
</svg>
