<svg width="16" height="16" viewBox="0 0 16 16" fill="none" xmlns="http://www.w3.org/2000/svg">
<path d="M12.9412 4.5419C12.2931 3.89231 11.5228 3.37744 10.6747 3.027C9.82668 2.67655 8.91762 2.49745 8 2.50003H7.975C4.12937 2.51315 1 5.68753 1 9.57065V11C1 11.2652 1.10536 11.5196 1.29289 11.7071C1.48043 11.8947 1.73478 12 2 12H14C14.2652 12 14.5196 11.8947 14.7071 11.7071C14.8946 11.5196 15 11.2652 15 11V9.50003C15.0026 8.57839 14.8219 7.66544 14.4684 6.81426C14.115 5.96307 13.5959 5.19065 12.9412 4.5419ZM14 11H7.48187L10.9044 6.29378C10.9824 6.18653 11.0147 6.05266 10.9941 5.92162C10.9735 5.79058 10.9016 5.6731 10.7944 5.59503C10.6871 5.51695 10.5533 5.48468 10.4222 5.50531C10.2912 5.52594 10.1737 5.59778 10.0956 5.70503L6.245 11H2V9.57065C2 9.37815 2.00937 9.18815 2.02688 9.00003H3.5C3.63261 9.00003 3.75979 8.94735 3.85355 8.85358C3.94732 8.75981 4 8.63264 4 8.50003C4 8.36742 3.94732 8.24024 3.85355 8.14647C3.75979 8.05271 3.63261 8.00003 3.5 8.00003H2.20438C2.84938 5.57128 4.95438 3.73503 7.5 3.52128V5.00003C7.5 5.13264 7.55268 5.25981 7.64645 5.35358C7.74021 5.44735 7.86739 5.50003 8 5.50003C8.13261 5.50003 8.25979 5.44735 8.35355 5.35358C8.44732 5.25981 8.5 5.13264 8.5 5.00003V3.52065C9.74041 3.62504 10.9178 4.11209 11.8694 4.9145C12.8211 5.71692 13.5001 6.79508 13.8125 8.00003H12.5C12.3674 8.00003 12.2402 8.05271 12.1464 8.14647C12.0527 8.24024 12 8.36742 12 8.50003C12 8.63264 12.0527 8.75981 12.1464 8.85358C12.2402 8.94735 12.3674 9.00003 12.5 9.00003H13.9794C13.9925 9.16565 14 9.3319 14 9.50003V11Z" fill="white"/>
</svg>
