<svg width="16" height="16" viewBox="0 0 16 16" fill="none" xmlns="http://www.w3.org/2000/svg">
<path d="M14 8.00003C14 8.13264 13.9473 8.25982 13.8536 8.35359C13.7598 8.44736 13.6326 8.50003 13.5 8.50003H8C7.86739 8.50003 7.74022 8.44736 7.64645 8.35359C7.55268 8.25982 7.5 8.13264 7.5 8.00003C7.5 7.86743 7.55268 7.74025 7.64645 7.64648C7.74022 7.55271 7.86739 7.50003 8 7.50003H13.5C13.6326 7.50003 13.7598 7.55271 13.8536 7.64648C13.9473 7.74025 14 7.86743 14 8.00003ZM8 4.50003H13.5C13.6326 4.50003 13.7598 4.44736 13.8536 4.35359C13.9473 4.25982 14 4.13264 14 4.00003C14 3.86743 13.9473 3.74025 13.8536 3.64648C13.7598 3.55271 13.6326 3.50003 13.5 3.50003H8C7.86739 3.50003 7.74022 3.55271 7.64645 3.64648C7.55268 3.74025 7.5 3.86743 7.5 4.00003C7.5 4.13264 7.55268 4.25982 7.64645 4.35359C7.74022 4.44736 7.86739 4.50003 8 4.50003ZM13.5 11.5H8C7.86739 11.5 7.74022 11.5527 7.64645 11.6465C7.55268 11.7402 7.5 11.8674 7.5 12C7.5 12.1326 7.55268 12.2598 7.64645 12.3536C7.74022 12.4474 7.86739 12.5 8 12.5H13.5C13.6326 12.5 13.7598 12.4474 13.8536 12.3536C13.9473 12.2598 14 12.1326 14 12C14 11.8674 13.9473 11.7402 13.8536 11.6465C13.7598 11.5527 13.6326 11.5 13.5 11.5ZM5.14625 2.64628L3.5 4.29316L2.85375 3.64628C2.75993 3.55246 2.63269 3.49976 2.5 3.49976C2.36732 3.49976 2.24007 3.55246 2.14625 3.64628C2.05243 3.7401 1.99973 3.86735 1.99973 4.00003C1.99973 4.13272 2.05243 4.25996 2.14625 4.35378L3.14625 5.35378C3.19269 5.40027 3.24783 5.43715 3.30853 5.46231C3.36923 5.48748 3.4343 5.50043 3.5 5.50043C3.56571 5.50043 3.63077 5.48748 3.69147 5.46231C3.75217 5.43715 3.80732 5.40027 3.85375 5.35378L5.85375 3.35378C5.94757 3.25996 6.00028 3.13272 6.00028 3.00003C6.00028 2.86735 5.94757 2.7401 5.85375 2.64628C5.75993 2.55246 5.63269 2.49976 5.5 2.49976C5.36732 2.49976 5.24007 2.55246 5.14625 2.64628ZM5.14625 6.64628L3.5 8.29316L2.85375 7.64628C2.75993 7.55246 2.63269 7.49976 2.5 7.49976C2.36732 7.49976 2.24007 7.55246 2.14625 7.64628C2.05243 7.7401 1.99973 7.86735 1.99973 8.00003C1.99973 8.06573 2.01267 8.13079 2.03781 8.19148C2.06295 8.25218 2.0998 8.30733 2.14625 8.35378L3.14625 9.35378C3.19269 9.40027 3.24783 9.43715 3.30853 9.46231C3.36923 9.48748 3.4343 9.50043 3.5 9.50043C3.56571 9.50043 3.63077 9.48748 3.69147 9.46231C3.75217 9.43715 3.80732 9.40027 3.85375 9.35378L5.85375 7.35378C5.94757 7.25996 6.00028 7.13272 6.00028 7.00003C6.00028 6.86735 5.94757 6.7401 5.85375 6.64628C5.75993 6.55246 5.63269 6.49976 5.5 6.49976C5.36732 6.49976 5.24007 6.55246 5.14625 6.64628ZM5.14625 10.6463L3.5 12.2932L2.85375 11.6463C2.8073 11.5998 2.75215 11.563 2.69145 11.5378C2.63076 11.5127 2.5657 11.4998 2.5 11.4998C2.43431 11.4998 2.36925 11.5127 2.30856 11.5378C2.24786 11.563 2.19271 11.5998 2.14625 11.6463C2.0998 11.6927 2.06295 11.7479 2.03781 11.8086C2.01267 11.8693 1.99973 11.9343 1.99973 12C1.99973 12.0657 2.01267 12.1308 2.03781 12.1915C2.06295 12.2522 2.0998 12.3073 2.14625 12.3538L3.14625 13.3538C3.19269 13.4003 3.24783 13.4372 3.30853 13.4623C3.36923 13.4875 3.4343 13.5004 3.5 13.5004C3.56571 13.5004 3.63077 13.4875 3.69147 13.4623C3.75217 13.4372 3.80732 13.4003 3.85375 13.3538L5.85375 11.3538C5.94757 11.26 6.00028 11.1327 6.00028 11C6.00028 10.8674 5.94757 10.7401 5.85375 10.6463C5.75993 10.5525 5.63269 10.4998 5.5 10.4998C5.36732 10.4998 5.24007 10.5525 5.14625 10.6463Z" fill="white"/>
</svg>
