<svg width="16" height="16" viewBox="0 0 16 16" fill="none" xmlns="http://www.w3.org/2000/svg">
<path d="M3 4C3 3.86739 3.05268 3.74021 3.14645 3.64645C3.24022 3.55268 3.36739 3.5 3.5 3.5H4.5V2.5C4.5 2.36739 4.55268 2.24021 4.64645 2.14645C4.74022 2.05268 4.86739 2 5 2C5.13261 2 5.25979 2.05268 5.35355 2.14645C5.44732 2.24021 5.5 2.36739 5.5 2.5V3.5H6.5C6.63261 3.5 6.75979 3.55268 6.85355 3.64645C6.94732 3.74021 7 3.86739 7 4C7 4.13261 6.94732 4.25979 6.85355 4.35355C6.75979 4.44732 6.63261 4.5 6.5 4.5H5.5V5.5C5.5 5.63261 5.44732 5.75979 5.35355 5.85355C5.25979 5.94732 5.13261 6 5 6C4.86739 6 4.74022 5.94732 4.64645 5.85355C4.55268 5.75979 4.5 5.63261 4.5 5.5V4.5H3.5C3.36739 4.5 3.24022 4.44732 3.14645 4.35355C3.05268 4.25979 3 4.13261 3 4ZM11.5 12H11V11.5C11 11.3674 10.9473 11.2402 10.8536 11.1464C10.7598 11.0527 10.6326 11 10.5 11C10.3674 11 10.2402 11.0527 10.1464 11.1464C10.0527 11.2402 10 11.3674 10 11.5V12H9.5C9.36739 12 9.24022 12.0527 9.14645 12.1464C9.05268 12.2402 9 12.3674 9 12.5C9 12.6326 9.05268 12.7598 9.14645 12.8536C9.24022 12.9473 9.36739 13 9.5 13H10V13.5C10 13.6326 10.0527 13.7598 10.1464 13.8536C10.2402 13.9473 10.3674 14 10.5 14C10.6326 14 10.7598 13.9473 10.8536 13.8536C10.9473 13.7598 11 13.6326 11 13.5V13H11.5C11.6326 13 11.7598 12.9473 11.8536 12.8536C11.9473 12.7598 12 12.6326 12 12.5C12 12.3674 11.9473 12.2402 11.8536 12.1464C11.7598 12.0527 11.6326 12 11.5 12ZM15 9H14V8C14 7.86739 13.9473 7.74021 13.8536 7.64645C13.7598 7.55268 13.6326 7.5 13.5 7.5C13.3674 7.5 13.2402 7.55268 13.1464 7.64645C13.0527 7.74021 13 7.86739 13 8V9H12C11.8674 9 11.7402 9.05268 11.6464 9.14645C11.5527 9.24021 11.5 9.36739 11.5 9.5C11.5 9.63261 11.5527 9.75979 11.6464 9.85355C11.7402 9.94732 11.8674 10 12 10H13V11C13 11.1326 13.0527 11.2598 13.1464 11.3536C13.2402 11.4473 13.3674 11.5 13.5 11.5C13.6326 11.5 13.7598 11.4473 13.8536 11.3536C13.9473 11.2598 14 11.1326 14 11V10H15C15.1326 10 15.2598 9.94732 15.3536 9.85355C15.4473 9.75979 15.5 9.63261 15.5 9.5C15.5 9.36739 15.4473 9.24021 15.3536 9.14645C15.2598 9.05268 15.1326 9 15 9ZM13.7069 5L5 13.7069C4.81248 13.8943 4.55823 13.9995 4.29313 13.9995C4.02802 13.9995 3.77377 13.8943 3.58625 13.7069L2.2925 12.4144C2.19962 12.3215 2.12594 12.2113 2.07567 12.0899C2.0254 11.9686 1.99953 11.8385 1.99953 11.7072C1.99953 11.5758 2.0254 11.4458 2.07567 11.3245C2.12594 11.2031 2.19962 11.0929 2.2925 11L11 2.29312C11.0929 2.20024 11.2031 2.12656 11.3245 2.07629C11.4458 2.02602 11.5758 2.00015 11.7072 2.00015C11.8385 2.00015 11.9686 2.02602 12.0899 2.07629C12.2113 2.12656 12.3215 2.20024 12.4144 2.29312L13.7069 3.58562C13.7998 3.67849 13.8734 3.78874 13.9237 3.91008C13.974 4.03142 13.9999 4.16147 13.9999 4.29281C13.9999 4.42415 13.974 4.55421 13.9237 4.67555C13.8734 4.79689 13.7998 4.90714 13.7069 5ZM10.2925 7L9 5.70687L3 11.7069L4.2925 13L10.2925 7ZM13 4.29313L11.7069 3L9.70688 5L11 6.29313L13 4.29313Z" fill="white"/>
</svg>
