<svg width="16" height="16" viewBox="0 0 16 16" fill="none" xmlns="http://www.w3.org/2000/svg">
<path d="M13.8669 5.1975C14.5607 6.64863 14.6924 8.30533 14.2366 9.84786C13.7808 11.3904 12.7697 12.7094 11.3986 13.5503C10.0274 14.3912 8.39342 14.6944 6.81186 14.4014C5.23031 14.1084 3.81335 13.24 2.83445 11.9637C1.85556 10.6874 1.38413 9.09372 1.51114 7.49027C1.63816 5.88683 2.35462 4.38727 3.52225 3.28101C4.68987 2.17474 6.22589 1.5402 7.83386 1.49985C9.44182 1.4595 11.0077 2.0162 12.2294 3.0625L13.6463 1.645C13.7401 1.55118 13.8673 1.49848 14 1.49848C14.1327 1.49848 14.2599 1.55118 14.3538 1.645C14.4476 1.73882 14.5003 1.86607 14.5003 1.99875C14.5003 2.13144 14.4476 2.25868 14.3538 2.3525L8.35375 8.3525C8.25993 8.44633 8.13268 8.49903 8 8.49903C7.86732 8.49903 7.74007 8.44633 7.64625 8.3525C7.55243 8.25868 7.49972 8.13144 7.49972 7.99875C7.49972 7.86607 7.55243 7.73882 7.64625 7.645L9.37875 5.9125C8.90922 5.60198 8.34863 5.459 7.78773 5.50672C7.22683 5.55444 6.69845 5.79007 6.28813 6.17546C5.87781 6.56084 5.60957 7.07343 5.52682 7.63024C5.44408 8.18705 5.55168 8.7555 5.8322 9.24355C6.11272 9.7316 6.54975 10.1107 7.07253 10.3194C7.59532 10.5282 8.17326 10.5544 8.7128 10.3939C9.25234 10.2333 9.72189 9.89531 10.0454 9.43466C10.369 8.97401 10.5276 8.41765 10.4956 7.85563C10.4919 7.78997 10.5012 7.72422 10.5229 7.66215C10.5446 7.60007 10.5784 7.54288 10.6222 7.49384C10.666 7.4448 10.7191 7.40487 10.7783 7.37633C10.8376 7.34779 10.9018 7.3312 10.9675 7.3275C11.1001 7.32005 11.2303 7.36557 11.3293 7.45406C11.3783 7.49788 11.4183 7.55093 11.4468 7.61018C11.4753 7.66943 11.4919 7.73372 11.4956 7.79938C11.5412 8.59487 11.314 9.3821 10.8516 10.031C10.3891 10.6798 9.71911 11.1515 8.95229 11.368C8.18547 11.5844 7.36774 11.5328 6.63425 11.2216C5.90075 10.9103 5.29541 10.3581 4.91826 9.65627C4.54112 8.95439 4.41475 8.14483 4.56004 7.36139C4.70533 6.57796 5.11359 5.86755 5.71734 5.34758C6.32108 4.82762 7.08418 4.52921 7.88049 4.5017C8.67681 4.47418 9.45868 4.7192 10.0969 5.19625L11.5188 3.77438C10.4768 2.90925 9.15186 2.45961 7.79854 2.5118C6.44521 2.564 5.15889 3.11436 4.18662 4.05717C3.21435 4.99999 2.62469 6.26878 2.5309 7.61985C2.43711 8.97093 2.8458 10.309 3.67848 11.3771C4.51115 12.4453 5.70909 13.1681 7.04222 13.4067C8.37535 13.6454 9.74967 13.3832 10.9012 12.6703C12.0527 11.9575 12.9003 10.8443 13.2811 9.54459C13.6619 8.2449 13.5491 6.85034 12.9644 5.62875C12.9072 5.50908 12.8999 5.37158 12.9441 5.24652C12.9883 5.12145 13.0803 5.01907 13.2 4.96188C13.3197 4.90469 13.4572 4.89739 13.5822 4.94158C13.7073 4.98577 13.8097 5.07783 13.8669 5.1975Z" fill="white"/>
</svg>
